<svg width="30" height="30" viewBox="0 0 30 30" fill="none" xmlns="http://www.w3.org/2000/svg">
<path d="M18.3398 1.8588C18.403 1.62319 18.557 1.42227 18.7682 1.30016C18.9793 1.17805 19.2303 1.14472 19.466 1.20751C21.7015 1.80861 23.7397 2.98659 25.3766 4.62344C27.0134 6.26028 28.1914 8.29851 28.7925 10.534C28.8237 10.6507 28.8316 10.7724 28.8157 10.8921C28.7999 11.0119 28.7606 11.1274 28.7001 11.232C28.6396 11.3365 28.5591 11.4282 28.4632 11.5016C28.3673 11.5751 28.2579 11.629 28.1412 11.6602C28.0245 11.6914 27.9028 11.6992 27.783 11.6834C27.6632 11.6675 27.5478 11.6283 27.4432 11.5678C27.3386 11.5073 27.247 11.4268 27.1735 11.3309C27.1 11.235 27.0461 11.1256 27.015 11.0089C26.4978 9.08566 25.4843 7.33211 24.0761 5.92388C22.6679 4.51565 20.9143 3.50219 18.9911 2.98502C18.7554 2.92204 18.5544 2.768 18.4322 2.55679C18.3101 2.34559 18.2768 2.09451 18.3398 1.8588ZM17.721 7.72513C18.8125 8.01858 19.8078 8.59374 20.607 9.39297C21.4062 10.1922 21.9814 11.1874 22.2749 12.279C22.3379 12.5146 22.492 12.7155 22.7031 12.8376C22.9143 12.9597 23.1653 12.9929 23.401 12.9299C23.6366 12.8669 23.8376 12.713 23.9598 12.5018C24.0819 12.2907 24.1152 12.0397 24.0524 11.804C23.6749 10.4003 22.9352 9.12042 21.9074 8.09258C20.8796 7.06474 19.5997 6.32505 18.1959 5.9476C17.9602 5.88462 17.7091 5.91786 17.4979 6.04C17.2867 6.16215 17.1327 6.36319 17.0697 6.5989C17.0067 6.83462 17.04 7.0857 17.1621 7.2969C17.2843 7.50811 17.4853 7.66215 17.721 7.72513ZM29.9846 22.7679C29.7277 24.7654 28.7523 26.601 27.2408 27.9319C25.7293 29.2628 23.785 29.9979 21.771 30C9.76648 30 0 20.2335 0 8.22895C0.00203868 6.215 0.73717 4.27067 2.06807 2.75916C3.39898 1.24765 5.23462 0.272329 7.23211 0.0153975C7.69324 -0.0400737 8.15994 0.0552162 8.56241 0.287018C8.96489 0.518819 9.28151 0.874677 9.46494 1.30138L12.5452 8.48857C12.685 8.81384 12.7421 9.1687 12.7112 9.52141C12.6803 9.87412 12.5625 10.2137 12.3682 10.5097L9.81769 14.4068C9.78886 14.4488 9.77135 14.4974 9.76686 14.5481C9.76238 14.5988 9.77107 14.6498 9.79208 14.6961C10.9756 17.1104 12.9332 19.0593 15.3528 20.2319C15.3994 20.2527 15.4507 20.2611 15.5015 20.2563C15.5524 20.2514 15.6011 20.2334 15.6428 20.204L19.4812 17.6445C19.778 17.4458 20.1199 17.3246 20.4756 17.2919C20.8313 17.2592 21.1895 17.3162 21.5176 17.4575L28.6985 20.535C29.1252 20.7184 29.4811 21.035 29.713 21.4375C29.9448 21.84 30.0401 22.3067 29.9846 22.7679ZM28.1592 22.5373C28.166 22.4723 28.1516 22.4069 28.1182 22.3508C28.0847 22.2947 28.034 22.2509 27.9736 22.226L20.7929 19.1485C20.746 19.1284 20.6948 19.1203 20.644 19.125C20.5931 19.1297 20.5443 19.147 20.5018 19.1753L16.6637 21.7348C16.3553 21.9411 15.9987 22.0637 15.6287 22.0907C15.2587 22.1177 14.888 22.0481 14.553 21.8887C11.762 20.5362 9.50403 18.2884 8.13884 15.5036C7.97876 15.1706 7.90747 14.8018 7.93189 14.4331C7.95631 14.0645 8.07562 13.7083 8.27823 13.3994L10.8288 9.50205C10.8566 9.45972 10.8734 9.41118 10.8778 9.36075C10.8822 9.31032 10.8741 9.25959 10.8541 9.21308L7.77396 2.02619C7.75109 1.97145 7.71278 1.92456 7.66369 1.89125C7.61461 1.85793 7.55688 1.83963 7.49757 1.83859C7.4859 1.8386 7.47425 1.83935 7.46268 1.84083C5.90938 2.04087 4.48203 2.79955 3.44726 3.97514C2.4125 5.15073 1.8411 6.66282 1.83981 8.22895C1.84576 13.5132 3.94757 18.5793 7.68411 22.3159C11.4206 26.0524 16.4868 28.1542 21.771 28.1602C23.3372 28.1589 24.8493 27.5875 26.0248 26.5527C27.2004 25.518 27.9591 24.0906 28.1592 22.5373Z" fill="#1B2423"/>
</svg>
