<svg width="36" height="142" viewBox="0 0 36 142" fill="none" xmlns="http://www.w3.org/2000/svg">
<path fill-rule="evenodd" clip-rule="evenodd" d="M0.951285 81.2098C0.991509 59.7155 11.7598 34.6219 32.719 0.219482L35.281 1.78033C14.3327 36.1648 3.98981 60.6281 3.95128 81.2155C3.9147 100.761 13.181 117.104 32.3506 135.398L31.9464 125.573C31.9124 124.745 32.5558 124.047 33.3835 124.013C34.2112 123.979 34.9098 124.622 34.9439 125.45L35.4987 138.938C35.5328 139.766 34.8894 140.465 34.0616 140.499L20.573 141.053C19.7453 141.088 19.0467 140.444 19.0127 139.616C18.9786 138.789 19.622 138.09 20.4497 138.056L30.3629 137.648C10.8481 119.045 0.91247 101.952 0.951285 81.2098Z" fill="#E9DDCD"/>
</svg>
