<svg width="36" height="142" viewBox="0 0 36 142" fill="none" xmlns="http://www.w3.org/2000/svg">
<path d="M34.0616 140.499C34.8894 140.465 35.5328 139.766 35.4987 138.938L34.9439 125.45C34.9099 124.622 34.2112 123.979 33.3835 124.013C32.5558 124.047 31.9124 124.745 31.9464 125.573L32.4396 137.563L20.4498 138.056C19.622 138.09 18.9786 138.789 19.0127 139.616C19.0467 140.444 19.7453 141.088 20.573 141.054L34.0616 140.499ZM32.719 0.219574C11.7598 34.6219 0.991518 59.7156 0.951294 81.2099C0.910778 102.861 11.7381 120.536 32.9838 140.103L35.0162 137.897C14.0394 118.577 3.91306 101.646 3.95129 81.2155C3.98982 60.6282 14.3327 36.1649 35.281 1.78043L32.719 0.219574Z" fill="#E9DDCD"/>
</svg>
