<svg width="31" height="30" viewBox="0 0 31 30" fill="none" xmlns="http://www.w3.org/2000/svg">
<path d="M25.9743 3H24.3822V0H21.1979V3H8.46073V0H5.27644V3H3.68429C2.83976 3 2.02983 3.31607 1.43266 3.87868C0.835487 4.44129 0.5 5.20435 0.5 6V27C0.5 27.7956 0.835487 28.5587 1.43266 29.1213C2.02983 29.6839 2.83976 30 3.68429 30H11.645V27H3.68429V10.5H25.9743V12H29.1586V6C29.1586 5.20435 28.8231 4.44129 28.226 3.87868C27.6288 3.31607 26.8189 3 25.9743 3ZM30.2731 18.525L28.681 20.025L25.4171 17.025L27.0092 15.525C27.3276 15.21 27.869 15.195 28.2352 15.525L30.2731 17.445C30.5756 17.745 30.5756 18.225 30.2731 18.525ZM14.8293 26.91L24.4936 17.82L27.7575 20.82L18.1091 30H14.8293V26.91Z" fill="#283841"/>
</svg>
