<svg width="8" height="377" viewBox="0 0 8 377" fill="none" xmlns="http://www.w3.org/2000/svg">
<path fill-rule="evenodd" clip-rule="evenodd" d="M3.5166 0.499268C5.4496 0.499267 7.0166 2.06627 7.0166 3.99927V7.41593C7.0166 9.34893 5.4496 10.9159 3.5166 10.9159C1.58361 10.9159 0.0166018 9.34893 0.0166017 7.41593L0.0166016 3.99927C0.0166015 2.06627 1.5836 0.499268 3.5166 0.499268ZM3.5166 23.4397C5.4496 23.4397 7.0166 25.0067 7.0166 26.9397L7.0166 33.7731C7.0166 35.7061 5.4496 37.2731 3.5166 37.2731C1.58361 37.2731 0.0166029 35.7061 0.0166029 33.7731L0.0166026 26.9397C0.0166025 25.0067 1.58361 23.4397 3.5166 23.4397ZM3.5166 49.7969C5.4496 49.7969 7.0166 51.3639 7.0166 53.2969V60.1302C7.0166 62.0632 5.4496 63.6302 3.5166 63.6302C1.58361 63.6302 0.0166041 62.0632 0.016604 60.1302L0.0166037 53.2969C0.0166036 51.3639 1.58361 49.7969 3.5166 49.7969ZM3.5166 76.154C5.4496 76.154 7.0166 77.721 7.0166 79.654L7.01661 86.4874C7.01661 88.4204 5.4496 89.9874 3.51661 89.9874C1.58361 89.9874 0.0166053 88.4204 0.0166052 86.4874L0.0166049 79.654C0.0166048 77.721 1.58361 76.154 3.5166 76.154ZM3.51661 102.511C5.4496 102.511 7.01661 104.078 7.01661 106.011L7.01661 112.845C7.01661 114.778 5.4496 116.345 3.51661 116.345C1.58361 116.345 0.0166064 114.778 0.0166063 112.845L0.016606 106.011C0.0166059 104.078 1.58361 102.511 3.51661 102.511ZM3.51661 128.868C5.4496 128.868 7.01661 130.435 7.01661 132.368V139.202C7.01661 141.135 5.4496 142.702 3.51661 142.702C1.58361 142.702 0.0166076 141.135 0.0166075 139.202L0.0166072 132.368C0.0166071 130.435 1.58361 128.868 3.51661 128.868ZM3.51661 155.225C5.4496 155.225 7.01661 156.792 7.01661 158.725L7.01661 165.559C7.01661 167.492 5.44961 169.059 3.51661 169.059C1.58361 169.059 0.0166087 167.492 0.0166086 165.559L0.0166083 158.725C0.0166082 156.792 1.58361 155.225 3.51661 155.225ZM3.51661 181.583C5.44961 181.583 7.01661 183.15 7.01661 185.083V191.916C7.01661 193.849 5.44961 195.416 3.51661 195.416C1.58361 195.416 0.0166099 193.849 0.0166098 191.916L0.0166095 185.083C0.0166094 183.15 1.58361 181.583 3.51661 181.583ZM3.51661 207.94C5.44961 207.94 7.01661 209.507 7.01661 211.44L7.01661 218.273C7.01661 220.206 5.44961 221.773 3.51661 221.773C1.58361 221.773 0.016611 220.206 0.0166109 218.273L0.0166106 211.44C0.0166105 209.507 1.58361 207.94 3.51661 207.94ZM3.51661 234.297C5.44961 234.297 7.01661 235.864 7.01661 237.797L7.01661 244.63C7.01661 246.563 5.44961 248.13 3.51661 248.13C1.58362 248.13 0.0166122 246.563 0.0166121 244.63L0.0166118 237.797C0.0166117 235.864 1.58361 234.297 3.51661 234.297ZM3.51661 260.654C5.44961 260.654 7.01661 262.221 7.01661 264.154V270.987C7.01661 272.92 5.44961 274.487 3.51661 274.487C1.58362 274.487 0.0166133 272.92 0.0166132 270.987L0.0166129 264.154C0.0166128 262.221 1.58362 260.654 3.51661 260.654ZM3.51661 287.011C5.44961 287.011 7.01661 288.578 7.01661 290.511L7.01661 297.344C7.01661 299.277 5.44961 300.844 3.51661 300.844C1.58362 300.844 0.0166145 299.277 0.0166144 297.344L0.0166141 290.511C0.016614 288.578 1.58362 287.011 3.51661 287.011ZM3.51662 313.368C5.44961 313.368 7.01662 314.935 7.01662 316.868V323.702C7.01662 325.635 5.44961 327.202 3.51662 327.202C1.58362 327.202 0.0166156 325.635 0.0166155 323.702L0.0166152 316.868C0.0166152 314.935 1.58362 313.368 3.51662 313.368ZM3.51662 339.725C5.44961 339.725 7.01662 341.292 7.01662 343.225L7.01662 350.059C7.01662 351.992 5.44961 353.559 3.51662 353.559C1.58362 353.559 0.0166168 351.992 0.0166167 350.059L0.0166164 343.225C0.0166163 341.292 1.58362 339.725 3.51662 339.725ZM3.51662 366.083C5.44961 366.083 7.01662 367.65 7.01662 369.583V372.999C7.01662 374.932 5.44961 376.499 3.51662 376.499C1.58362 376.499 0.0166178 374.932 0.0166177 372.999L0.0166175 369.583C0.0166175 367.65 1.58362 366.083 3.51662 366.083Z" fill="#FB8840"/>
</svg>
