<svg width="26" height="26" viewBox="0 0 26 26" fill="none" xmlns="http://www.w3.org/2000/svg">
<path d="M15.6582 2.39543C15.7108 2.19909 15.8392 2.03166 16.0152 1.9299C16.1911 1.82814 16.4003 1.80037 16.5967 1.85269C18.4596 2.35361 20.1581 3.33526 21.5221 4.6993C22.8862 6.06334 23.8678 7.76186 24.3687 9.62473C24.3947 9.72199 24.4013 9.82342 24.3881 9.92322C24.3749 10.023 24.3421 10.1192 24.2917 10.2064C24.2413 10.2935 24.1743 10.3699 24.0944 10.4311C24.0144 10.4924 23.9232 10.5373 23.826 10.5632C23.7287 10.5892 23.6273 10.5958 23.5275 10.5826C23.4277 10.5694 23.3315 10.5366 23.2443 10.4862C23.1572 10.4358 23.0808 10.3688 23.0196 10.2889C22.9583 10.209 22.9135 10.1178 22.8875 10.0205C22.4565 8.41782 21.6119 6.95652 20.4384 5.783C19.2649 4.60947 17.8036 3.76493 16.2009 3.33395C16.0045 3.28147 15.837 3.1531 15.7352 2.9771C15.6334 2.80109 15.6057 2.59186 15.6582 2.39543ZM15.1425 7.28404C16.0521 7.52859 16.8815 8.00788 17.5475 8.67391C18.2135 9.33994 18.6928 10.1693 18.9374 11.0789C18.9899 11.2753 19.1183 11.4427 19.2943 11.5444C19.4703 11.6462 19.6794 11.6738 19.8758 11.6214C20.0722 11.5689 20.2397 11.4406 20.3415 11.2646C20.4433 11.0887 20.471 10.8795 20.4186 10.6831C20.1041 9.51337 19.4877 8.44679 18.6312 7.59025C17.7746 6.73372 16.7081 6.11731 15.5383 5.80277C15.3418 5.75029 15.1326 5.77799 14.9566 5.87977C14.7806 5.98156 14.6522 6.14909 14.5998 6.34552C14.5473 6.54195 14.575 6.75118 14.6768 6.92719C14.7785 7.10319 14.9461 7.23156 15.1425 7.28404ZM25.3622 19.8197C25.148 21.4842 24.3353 23.0139 23.0757 24.123C21.8161 25.2321 20.1958 25.8447 18.5175 25.8464C8.51374 25.8464 0.375 17.7077 0.375 7.70389C0.376699 6.0256 0.989308 4.40533 2.09839 3.14573C3.20748 1.88614 4.73718 1.07338 6.40176 0.859267C6.78603 0.813041 7.17495 0.892449 7.51034 1.08562C7.84574 1.27879 8.10959 1.57533 8.26245 1.93092L10.8293 7.92024C10.9459 8.1913 10.9934 8.48702 10.9677 8.78094C10.9419 9.07487 10.8437 9.35783 10.6819 9.60451L8.55641 12.8521C8.53238 12.8871 8.51779 12.9276 8.51405 12.9699C8.51032 13.0121 8.51755 13.0546 8.53507 13.0932C9.52133 15.1051 11.1526 16.7292 13.169 17.7063C13.2079 17.7237 13.2506 17.7307 13.2929 17.7267C13.3353 17.7226 13.3759 17.7076 13.4107 17.6831L16.6093 15.5502C16.8567 15.3846 17.1416 15.2836 17.438 15.2564C17.7344 15.2291 18.0329 15.2766 18.3063 15.3943L24.2904 17.959C24.646 18.1118 24.9426 18.3756 25.1358 18.711C25.329 19.0464 25.4084 19.4354 25.3622 19.8197ZM23.841 19.6275C23.8467 19.5734 23.8347 19.5189 23.8068 19.4721C23.7789 19.4253 23.7367 19.3889 23.6864 19.3681L17.7024 16.8035C17.6633 16.7868 17.6206 16.7801 17.5783 16.784C17.536 16.7879 17.4952 16.8022 17.4599 16.8258L14.2614 18.9588C14.0044 19.1307 13.7072 19.2329 13.3989 19.2554C13.0906 19.2779 12.7817 19.2198 12.5025 19.087C10.1767 17.9599 8.29502 16.0868 7.15737 13.7661C7.02396 13.4886 6.96455 13.1813 6.98491 12.8741C7.00526 12.5668 7.10468 12.2701 7.27353 12.0126L9.39898 8.76481C9.42213 8.72954 9.43616 8.68908 9.43984 8.64706C9.44352 8.60504 9.43673 8.56276 9.42006 8.524L6.8533 2.53493C6.83424 2.48931 6.80231 2.45024 6.76141 2.42247C6.72051 2.39471 6.6724 2.37946 6.62297 2.37859C6.61325 2.3786 6.60354 2.37922 6.5939 2.38046C5.29949 2.54716 4.11003 3.17939 3.24772 4.15905C2.38542 5.13871 1.90925 6.39879 1.90817 7.70389C1.91313 12.1074 3.66464 16.3292 6.77842 19.443C9.89221 22.5568 14.114 24.3083 18.5175 24.3132C19.8226 24.3122 21.0827 23.836 22.0624 22.9737C23.042 22.1114 23.6743 20.9219 23.841 19.6275Z" fill="#1B2423"/>
</svg>
