<svg width="56" height="69" viewBox="0 0 56 69" fill="none" xmlns="http://www.w3.org/2000/svg">
<path fill-rule="evenodd" clip-rule="evenodd" d="M28.6805 0.159177C28.1145 -0.053059 27.4909 -0.053059 26.9249 0.159177L1.62219 9.64769C0.646432 10.0136 0 10.9464 0 11.9885V34.1284C0 44.733 7.03004 53.2747 13.5051 58.9404C16.7951 61.8192 20.0734 64.0717 22.5242 65.6034C23.7521 66.3709 24.779 66.9616 25.5047 67.3633C25.8677 67.5642 26.1557 67.7181 26.3565 67.8235C26.4568 67.8762 26.5354 67.9168 26.5906 67.9451L26.6557 67.9782L26.6748 67.9879L26.6809 67.9909L26.6831 67.992C26.6839 67.9924 26.6847 67.9928 27.8027 65.7567L26.6847 67.9928C27.3885 68.3447 28.2169 68.3447 28.9207 67.9928L27.8027 65.7567C28.9207 67.9928 28.9215 67.9924 28.9223 67.992L28.9245 67.9909L28.9306 67.9879L28.9497 67.9782L29.0148 67.9451C29.07 67.9168 29.1486 67.8762 29.2489 67.8235C29.4497 67.7181 29.7377 67.5642 30.1007 67.3633C30.8263 66.9616 31.8532 66.3709 33.0812 65.6034C35.532 64.0717 38.8103 61.8192 42.1003 58.9404C48.5754 53.2747 55.6054 44.733 55.6054 34.1284V11.9885C55.6054 10.9464 54.959 10.0136 53.9832 9.64769L28.6805 0.159177ZM27.8027 62.9202C27.1516 62.5573 26.2485 62.035 25.1741 61.3635C22.8807 59.93 19.8332 57.8337 16.7976 55.1775C10.6213 49.7732 5 42.5008 5 34.1284V13.721L27.8027 5.17L50.6054 13.721V34.1284C50.6054 42.5008 44.9841 49.7732 38.8078 55.1775C35.7722 57.8337 32.7247 59.93 30.4312 61.3635C29.3568 62.035 28.4538 62.5573 27.8027 62.9202ZM25.5004 14.4454V12.7927C25.4997 12.4402 25.5734 12.0916 25.7165 11.7695C25.8597 11.4474 26.0691 11.1591 26.3312 10.9234C26.5565 10.7128 26.8237 10.5518 27.1152 10.4511C27.4068 10.3504 27.7163 10.3121 28.0236 10.3388C28.592 10.3997 29.1176 10.6695 29.4985 11.0959C29.8794 11.5223 30.0885 12.0748 30.0852 12.6466V14.4939C30.3884 14.8488 30.6079 15.2692 30.7252 15.7238H32.2851C33.5411 15.7218 34.7469 16.2168 35.6391 17.1008C35.9427 17.4015 36.3031 17.6387 36.6993 17.7985C37.0956 17.9583 37.5197 18.0376 37.9469 18.0316H40.7114C40.7585 18.0227 40.8065 18.0181 40.8549 18.0181C40.9033 18.0181 40.9514 18.0227 40.9985 18.0316H46.2396C46.4436 18.0316 46.6393 18.1127 46.7835 18.2569C46.9278 18.4012 47.0088 18.5969 47.0088 18.8009C47.0088 19.0049 46.9278 19.2006 46.7835 19.3448C46.6393 19.4891 46.4436 19.5702 46.2396 19.5702H41.9439L46.9629 33.9102C46.9794 33.9577 46.991 34.0063 46.9979 34.0554C47.0052 34.0979 47.0089 34.1412 47.0089 34.1849C47.0089 35.8171 46.3605 37.3824 45.2064 38.5365C44.0523 39.6907 42.4869 40.339 40.8548 40.339C39.2226 40.339 37.6573 39.6907 36.5032 38.5365C35.349 37.3824 34.7007 35.8171 34.7007 34.1849C34.7007 34.103 34.7137 34.0225 34.7387 33.946C34.7412 33.934 34.7439 33.9221 34.747 33.9102L39.766 19.5702H37.9161C37.2939 19.5733 36.6772 19.4532 36.1015 19.2169C35.5259 18.9806 35.0027 18.6326 34.5621 18.1932C34.2586 17.8925 33.8982 17.6553 33.5019 17.4955C33.1057 17.3357 32.6816 17.2564 32.2544 17.2624H30.725C30.6962 17.374 30.661 17.4842 30.6195 17.5926C30.4933 17.9224 30.312 18.2261 30.0851 18.4917V41.1098H32.3929C33.413 41.1098 34.3914 41.5151 35.1127 42.2364C35.6699 42.7936 36.0385 43.5042 36.1774 44.2689C36.7288 44.3992 37.2384 44.6805 37.6456 45.0877C38.2227 45.6648 38.5469 46.4474 38.5469 47.2635V48.0328C38.5469 48.2368 38.4658 48.4325 38.3216 48.5767C38.1773 48.721 37.9816 48.802 37.7776 48.802H17.7768C17.5727 48.802 17.3771 48.721 17.2328 48.5767C17.0886 48.4325 17.0075 48.2368 17.0075 48.0328V47.2635C17.0075 46.4474 17.3317 45.6648 17.9088 45.0877C18.316 44.6804 18.8258 44.3991 19.3774 44.2688C19.5162 43.5041 19.8848 42.7936 20.442 42.2364C21.1633 41.5151 22.1417 41.1098 23.1618 41.1098H25.4695V18.5436C25.2651 18.3111 25.0965 18.0486 24.9699 17.7646C24.8975 17.6021 24.8394 17.434 24.7963 17.2624H23.254C22.8378 17.2618 22.4257 17.3437 22.0415 17.5035C21.6572 17.6633 21.3085 17.8977 21.0154 18.1932C20.5779 18.6302 20.0585 18.9768 19.487 19.213C18.9154 19.4493 18.303 19.5707 17.6845 19.5702H15.7807L20.783 33.8623C20.8292 33.9625 20.8539 34.0724 20.8539 34.1849C20.8539 35.8171 20.2055 37.3824 19.0514 38.5365C17.8973 39.6907 16.3319 40.339 14.6998 40.339C13.0676 40.339 11.5023 39.6907 10.3482 38.5365C9.19404 37.3824 8.54567 35.8171 8.54567 34.1849C8.54567 34.0736 8.5698 33.9648 8.61517 33.8654L13.6185 19.5702H9.31493C9.11091 19.5702 8.91524 19.4891 8.77098 19.3448C8.62671 19.2006 8.54567 19.0049 8.54567 18.8009C8.54567 18.5969 8.62671 18.4012 8.77098 18.2569C8.91524 18.1127 9.11091 18.0316 9.31493 18.0316H17.6845C18.1007 18.0322 18.5128 17.9503 18.8971 17.7905C19.2813 17.6307 19.63 17.3963 19.9231 17.1008C20.3606 16.6638 20.88 16.3172 21.4515 16.0809C22.0231 15.8447 22.6356 15.7233 23.254 15.7238H24.8059C24.8479 15.5651 24.9027 15.4097 24.9699 15.2589C25.1028 14.9608 25.2821 14.6863 25.5004 14.4454ZM36.5443 33.4157H45.1581L40.8549 21.1097L36.5443 33.4157ZM14.6996 21.109L19.003 33.4157H10.3962L14.6996 21.109ZM26.6208 15.478C26.3754 15.7577 26.2389 16.1181 26.2389 16.4925C26.2394 16.7072 26.2848 16.9194 26.3723 17.1155C26.4597 17.3116 26.5872 17.4872 26.7466 17.6311C26.7577 17.641 26.7689 17.6508 26.7803 17.6603L26.7926 17.6704C27.0685 17.8987 27.4154 18.0236 27.7735 18.0236C28.1315 18.0236 28.4784 17.8987 28.7543 17.6704C28.7615 17.6642 28.7689 17.6582 28.7763 17.6523C28.7844 17.6453 28.7925 17.6382 28.8005 17.6311C29.0296 17.4229 29.1906 17.1504 29.2624 16.8493C29.3341 16.5482 29.3134 16.2324 29.2029 15.9432C29.0924 15.6541 28.8972 15.405 28.6429 15.2285C28.4711 15.1093 28.2778 15.027 28.075 14.9854C27.9886 14.9704 27.9007 14.9627 27.812 14.9627C27.454 14.9627 27.1071 15.0876 26.8312 15.3159C26.7706 15.3821 26.6994 15.4368 26.6208 15.478ZM27.008 19.4767C27.2577 19.5395 27.5161 19.5712 27.7774 19.5696C27.8229 19.5691 27.8683 19.5676 27.9136 19.5652C28.1265 19.5557 28.3386 19.5242 28.5466 19.4705V41.1099H27.008V19.4767ZM28.5467 13.5158C28.296 13.4476 28.0372 13.414 27.7774 13.4158C27.518 13.4115 27.2592 13.4425 27.0082 13.5081V12.785C27.0071 12.6491 27.0346 12.5145 27.089 12.3899C27.1433 12.2653 27.2232 12.1536 27.3236 12.0619C27.3945 11.9939 27.4795 11.9421 27.5724 11.9102C27.6654 11.8784 27.7643 11.8671 27.862 11.8773C28.0511 11.8982 28.2256 11.9884 28.3521 12.1305C28.4785 12.2725 28.5478 12.4564 28.5467 12.6466V13.5158ZM26.3157 42.6484C26.308 42.6485 26.3003 42.6485 26.2926 42.6484H23.1618C22.6843 42.6481 22.2186 42.796 21.8287 43.0715C21.4389 43.347 21.1441 43.7365 20.9849 44.1865H34.5698C34.4106 43.7365 34.1158 43.347 33.7261 43.0715C33.3362 42.796 32.8704 42.6481 32.3929 42.6484H29.3162L29.3158 42.6484H26.3157ZM18.9967 46.1756C19.2802 45.8921 19.663 45.7306 20.0634 45.7251L20.0847 45.7254H35.47L35.4913 45.7251C35.8916 45.7307 36.2743 45.8921 36.5577 46.1756C36.8463 46.4641 37.0084 46.8555 37.0084 47.2635H18.546C18.546 46.8555 18.7081 46.4641 18.9967 46.1756ZM36.3007 34.9542C36.4788 36.0335 37.0344 37.0145 37.8684 37.7223C38.7025 38.4301 39.7609 38.8186 40.8548 38.8186C41.9487 38.8186 43.007 38.4301 43.8411 37.7223C44.6752 37.0145 45.2308 36.0335 45.4088 34.9542H36.3007ZM11.7134 37.7223C10.8794 37.0145 10.3238 36.0335 10.1457 34.9542H19.2538C19.0758 36.0335 18.5202 37.0145 17.6861 37.7223C16.852 38.4301 15.7937 38.8186 14.6998 38.8186C13.6059 38.8186 12.5475 38.4301 11.7134 37.7223Z" fill="#283841"/>
</svg>
