<svg width="150" height="150" viewBox="0 0 150 150" fill="none" xmlns="http://www.w3.org/2000/svg">
<path d="M128.763 99.4406C128.494 99.9318 128.75 100.564 129.41 100.924C129.733 101.101 130.321 101.258 131.182 101.419C132.043 101.579 132.786 101.821 133.39 102.151L133.572 102.25C132.841 102.653 132.288 102.898 131.956 102.971C131.269 103.125 129.366 103.471 128.912 104.299C128.643 104.79 128.81 105.319 129.231 105.549C129.47 105.679 129.734 105.696 130.053 105.615C130.675 105.444 131.348 104.681 132.133 103.78C132.53 103.322 133.04 102.889 133.708 102.47C133.707 103.272 133.624 103.956 133.444 104.55C133.272 105.131 133.131 105.655 133.042 106.118C132.864 107.077 133.079 107.651 133.556 107.911C133.991 108.149 134.485 107.981 134.731 107.532C134.884 107.251 134.946 106.939 134.909 106.572C134.879 106.228 134.683 105.519 134.314 104.46C134.031 103.412 134.033 103.541 133.966 102.465C134.64 102.833 135.287 103.351 135.892 104.01C136.498 104.669 136.977 105.094 137.314 105.279C137.988 105.647 138.645 105.513 138.914 105.022C139.19 104.517 138.912 103.891 138.267 103.538C137.775 103.27 136.53 103.045 135.733 102.902C135.334 102.83 134.848 102.619 134.286 102.312L134.104 102.212C134.748 101.835 135.337 101.592 135.857 101.475C136.898 101.241 138.357 100.907 138.764 100.164C139.033 99.6724 138.894 99.1592 138.473 98.9291C138.234 98.7987 137.956 98.7742 137.645 98.8416C137.024 98.9764 136.381 99.7187 135.58 100.649C135.176 101.121 134.636 101.573 133.969 101.993C133.954 101.219 134.037 100.535 134.215 99.9761C134.401 99.4031 134.528 98.8709 134.639 98.4026C134.868 97.4518 134.612 96.8197 134.148 96.5666C133.727 96.3365 133.176 96.5096 132.93 96.9588C132.531 97.6886 132.927 98.7981 133.329 99.9294C133.53 100.495 133.67 101.173 133.711 101.998C132.981 101.599 132.348 101.089 131.756 100.437C131.178 99.7936 130.713 99.3758 130.362 99.1841C129.731 98.8389 129.047 98.9213 128.763 99.4406Z" fill="#283841"/>
<path d="M113.145 121.029C113.772 120.483 114.455 120.13 115.192 119.969C115.928 119.824 116.648 119.87 117.35 120.107C118.059 120.353 118.687 120.789 119.234 121.416C119.787 122.052 120.134 122.733 120.272 123.461C120.411 124.188 120.354 124.902 120.101 125.602C119.841 126.31 119.396 126.936 118.769 127.482C118.229 127.951 117.651 128.27 117.035 128.439C116.418 128.608 115.802 128.592 115.188 128.391L115.45 127.4C115.947 127.533 116.424 127.536 116.879 127.408C117.334 127.281 117.751 127.053 118.129 126.724C118.58 126.332 118.895 125.874 119.075 125.35C119.262 124.834 119.299 124.3 119.186 123.748C119.073 123.196 118.799 122.671 118.364 122.172C117.93 121.674 117.447 121.331 116.915 121.143C116.384 120.955 115.846 120.914 115.301 121.02C114.764 121.134 114.27 121.387 113.819 121.779C113.441 122.108 113.157 122.489 112.968 122.921C112.78 123.354 112.713 123.822 112.769 124.324L111.751 124.447C111.643 123.82 111.712 123.208 111.957 122.613C112.21 122.026 112.605 121.498 113.145 121.029Z" fill="#283841"/>
<path d="M100.382 129.36L105.434 131.297L104.885 132.247L99.2093 130.018L100.382 129.36ZM105.755 126.348L109.869 133.671L108.878 134.227L104.764 126.903L105.755 126.348ZM106.905 129.995L107.383 130.846L105.024 132.169L104.546 131.318L106.905 129.995ZM104.487 131.736L105.487 131.359L104.608 136.621L103.533 137.224L104.487 131.736Z" fill="#283841"/>
<path d="M90.859 132.605C91.6356 132.372 92.3877 132.336 93.1152 132.497C93.8356 132.671 94.4666 133.011 95.0081 133.517C95.5527 134.033 95.9445 134.69 96.1836 135.487C96.4257 136.294 96.4599 137.058 96.2862 137.778C96.1124 138.498 95.7711 139.123 95.2621 139.654C94.7532 140.185 94.1054 140.568 93.3185 140.804C92.5215 141.042 91.7643 141.08 91.047 140.916C90.3194 140.755 89.69 140.42 89.1587 139.911C88.6171 139.405 88.2253 138.749 87.9832 137.942C87.7441 137.145 87.7099 136.381 87.8806 135.651C88.0442 134.934 88.384 134.303 88.9 133.759C89.4192 133.225 90.0721 132.84 90.859 132.605ZM91.1486 133.57C90.5661 133.745 90.0884 134.027 89.7154 134.417C89.3455 134.817 89.1033 135.29 88.9888 135.837C88.8672 136.397 88.8998 136.988 89.0868 137.611C89.2768 138.245 89.5751 138.757 89.9818 139.147C90.3783 139.541 90.8396 139.798 91.3658 139.919C91.8951 140.05 92.4459 140.03 93.0182 139.858C93.5904 139.687 94.0615 139.401 94.4314 139.001C94.8044 138.611 95.0533 138.141 95.178 137.592C95.3027 137.042 95.27 136.451 95.08 135.817C94.893 135.194 94.5947 134.682 94.185 134.281C93.7783 133.891 93.3103 133.63 92.781 133.499C92.2548 133.378 91.7106 133.402 91.1486 133.57Z" fill="#283841"/>
<path d="M76.9995 134.704C77.7233 134.656 78.3887 134.778 78.9958 135.07C79.6036 135.372 80.1038 135.826 80.4963 136.431C80.8789 137.047 81.1003 137.813 81.1605 138.728C81.2207 139.643 81.1011 140.426 80.8018 141.077C80.5032 141.737 80.072 142.252 79.5083 142.621C78.9446 142.989 78.2955 143.197 77.5611 143.245C76.7628 143.298 76.0378 143.164 75.386 142.843C74.7243 142.534 74.1911 142.066 73.7866 141.441C73.3827 140.826 73.1531 140.098 73.0978 139.257C73.0418 138.406 73.1738 137.649 73.4937 136.986C73.8136 136.324 74.281 135.791 74.8958 135.387C75.5 134.984 76.2012 134.756 76.9995 134.704ZM81.1278 131.402L81.8825 142.882L80.7969 142.953L80.631 140.43L80.6326 138.747L80.3616 137.065L79.9942 131.477L81.1278 131.402ZM77.1455 135.704C76.5494 135.743 76.026 135.911 75.5751 136.208C75.125 136.516 74.7777 136.923 74.5331 137.431C74.2893 137.95 74.1887 138.533 74.2314 139.183C74.2741 139.832 74.4499 140.392 74.7588 140.864C75.0677 141.335 75.4655 141.694 75.952 141.94C76.4385 142.186 76.9798 142.289 77.5758 142.25C78.1719 142.211 78.7003 142.037 79.1611 141.729C79.6112 141.422 79.9586 141.014 80.2031 140.506C80.437 139.999 80.5326 139.421 80.4899 138.772C80.4472 138.123 80.2764 137.557 79.9774 137.074C79.6685 136.602 79.2708 136.244 78.7842 135.998C78.2878 135.763 77.7415 135.665 77.1455 135.704Z" fill="#283841"/>
<path d="M61.9747 133.472L61.6826 135.305L61.6822 135.613L61.1938 138.678C61.0813 139.384 61.195 139.958 61.5349 140.401C61.8642 140.842 62.4187 141.125 63.1982 141.249C63.7355 141.334 64.2606 141.326 64.7738 141.224C65.2869 141.122 65.7355 140.95 66.1196 140.709L66.4918 141.627C66.0133 141.918 65.4641 142.111 64.8439 142.207C64.2221 142.313 63.5846 142.315 62.9315 142.211C61.857 142.04 61.0729 141.64 60.5791 141.01C60.0731 140.39 59.9065 139.537 60.0794 138.452L60.9002 133.301L61.9747 133.472ZM64.8473 133.848C65.4689 133.947 65.9954 134.133 66.4271 134.407C66.8465 134.69 67.1488 135.029 67.334 135.426C67.5175 135.833 67.5715 136.274 67.496 136.748C67.4272 137.18 67.265 137.554 67.0095 137.869C66.7417 138.194 66.3593 138.425 65.8622 138.562C65.3529 138.708 64.7032 138.718 63.9132 138.592L61.0531 138.137L61.1865 137.3L64.015 137.75C64.8156 137.877 65.3966 137.823 65.7579 137.589C66.1088 137.353 66.3177 137.025 66.3849 136.604C66.4604 136.129 66.3365 135.721 66.0131 135.378C65.6897 135.035 65.1962 134.811 64.5325 134.705C63.9005 134.605 63.3353 134.661 62.837 134.873C62.3265 135.094 61.9223 135.462 61.6243 135.976L61.4948 135.162C61.7928 134.647 62.2312 134.269 62.8099 134.026C63.3781 133.782 64.0573 133.722 64.8473 133.848Z" fill="#283841"/>
<path d="M49.85 129.38L48.7443 132.194L48.6384 131.895L51.2899 132.935C52.2929 133.328 52.9917 133.854 53.3861 134.513C53.7806 135.171 53.814 135.918 53.4864 136.752C53.1354 137.645 52.5712 138.192 51.7938 138.391C51.0125 138.6 50.1154 138.506 49.1024 138.109L45.8104 136.819L48.8817 129L49.85 129.38ZM55.5701 131.622L52.2433 133.79L51.141 133.357L54.4231 131.173L55.5701 131.622ZM48.6214 132.507L47.0185 136.588L46.9477 136.199L49.4354 137.174C50.1603 137.458 50.781 137.541 51.2973 137.423C51.8038 137.301 52.1798 136.927 52.4256 136.301C52.8819 135.14 52.3702 134.269 50.8905 133.689L48.3283 132.684L48.6214 132.507Z" fill="#283841"/>
<path d="M34.4267 117.982C34.0095 117.608 33.3351 117.713 32.8328 118.273C32.587 118.546 32.2989 119.083 31.9458 119.884C31.5927 120.684 31.187 121.352 30.7275 121.864L30.5886 122.019C30.3634 121.216 30.2516 120.622 30.2557 120.282C30.2627 119.579 30.3614 117.649 29.6582 117.019C29.2411 116.645 28.6878 116.687 28.3672 117.044C28.1856 117.246 28.1087 117.5 28.1153 117.828C28.1391 118.472 28.7284 119.301 29.4275 120.27C29.783 120.761 30.0876 121.355 30.3436 122.1C29.5627 121.916 28.9149 121.68 28.3765 121.37C27.85 121.07 27.3712 120.813 26.9413 120.621C26.047 120.228 25.4391 120.307 25.0758 120.712C24.7445 121.081 24.7954 121.599 25.1768 121.94C25.4152 122.154 25.7058 122.285 26.0712 122.333C26.4139 122.383 27.1492 122.354 28.2651 122.236C29.3514 122.2 29.2252 122.173 30.2893 122.352C29.7764 122.924 29.1241 123.435 28.3432 123.874C27.5622 124.313 27.0382 124.681 26.7817 124.967C26.2687 125.539 26.2486 126.208 26.6657 126.582C27.0948 126.966 27.768 126.839 28.2596 126.291C28.6337 125.874 29.1372 124.714 29.4594 123.972C29.6206 123.601 29.9375 123.176 30.3649 122.699L30.5039 122.544C30.7241 123.257 30.8265 123.886 30.8215 124.418C30.8116 125.483 30.8025 126.979 31.4342 127.545C31.8514 127.918 32.3832 127.9 32.7038 127.543C32.8855 127.341 32.973 127.076 32.9784 126.758C32.9891 126.123 32.4129 125.328 31.69 124.337C31.3226 123.836 31.0049 123.208 30.7488 122.463C31.5059 122.626 32.1536 122.862 32.6575 123.163C33.1733 123.475 33.6628 123.72 34.094 123.934C34.9682 124.373 35.6426 124.269 35.9953 123.876C36.3159 123.518 36.2732 122.943 35.8918 122.602C35.272 122.046 34.1002 122.178 32.9058 122.311C32.3086 122.378 31.6161 122.359 30.8031 122.211C31.3588 121.592 32.0004 121.093 32.7707 120.665C33.5302 120.25 34.0436 119.894 34.3107 119.596C34.7916 119.06 34.8677 118.377 34.4267 117.982Z" fill="#283841"/>
<path d="M22.7013 104.244L15.2136 108.051L11.7851 101.322L19.2728 97.5147L19.7885 98.5269L12.9141 102.022L13.0544 101.628L15.7129 106.846L15.3112 106.727L22.1856 103.231L22.7013 104.244Z" fill="#283841"/>
<path d="M16.5268 87.7507C16.7034 88.4542 16.7027 89.1307 16.5247 89.78C16.3364 90.432 15.9799 91.0051 15.4551 91.4994C14.9174 91.986 14.2036 92.3407 13.3137 92.5635C12.4239 92.7864 11.6322 92.8088 10.9386 92.6306C10.2347 92.455 9.65095 92.1229 9.18738 91.6342C8.72381 91.1455 8.40244 90.5442 8.22328 89.8304C8.02853 89.0544 8.03047 88.3172 8.22907 87.6187C8.41473 86.9124 8.779 86.3044 9.32189 85.7946C9.85444 85.2873 10.5294 84.9313 11.3468 84.7266C12.1746 84.5193 12.943 84.5138 13.6521 84.71C14.3613 84.9063 14.9696 85.2707 15.4772 85.8034C15.9822 86.3257 16.3321 86.9748 16.5268 87.7507ZM20.5157 91.2216L9.35638 94.0165L9.09153 92.9612L11.5438 92.3471L13.2007 92.0475L14.807 91.4803L20.2392 90.1198L20.5157 91.2216ZM15.5685 88.0732C15.4231 87.4939 15.1639 87.009 14.791 86.6185C14.4077 86.2307 13.9443 85.9619 13.4009 85.8121C12.847 85.6649 12.2545 85.6703 11.6234 85.8284C10.9922 85.9865 10.4724 86.2596 10.0639 86.6478C9.65547 87.036 9.37386 87.4914 9.21908 88.014C9.06431 88.5366 9.05962 89.0876 9.20503 89.667C9.35044 90.2463 9.61607 90.7351 10.0019 91.1333C10.3852 91.5211 10.8486 91.7899 11.3921 91.9397C11.9329 92.0792 12.519 92.0698 13.1501 91.9118C13.7813 91.7537 14.3076 91.4844 14.729 91.104C15.1375 90.7158 15.4191 90.2604 15.5738 89.7378C15.7157 89.2074 15.7139 88.6526 15.5685 88.0732Z" fill="#283841"/>
<path d="M15.0358 72.9458L13.1803 72.9888L12.8774 73.0438L9.77428 73.1157C9.0598 73.1322 8.51531 73.3476 8.1408 73.7617C7.76604 74.1651 7.5878 74.7614 7.60608 75.5505C7.61868 76.0944 7.7213 76.6095 7.91395 77.0958C8.1066 77.5822 8.35617 77.9925 8.66266 78.3268L7.82674 78.8583C7.45429 78.4402 7.16517 77.9347 6.95939 77.342C6.74295 76.7495 6.62707 76.1227 6.61175 75.4615C6.58656 74.3738 6.8391 73.5304 7.36937 72.9313C7.88872 72.3218 8.69759 72.0043 9.79596 71.9789L15.0106 71.8581L15.0358 72.9458ZM15.1828 75.8392C15.1974 76.4683 15.1088 77.0199 14.917 77.4938C14.7144 77.9572 14.4346 78.3158 14.0777 78.5695C13.7102 78.8234 13.2865 78.9559 12.8066 78.967C12.3694 78.9772 11.9725 78.885 11.6159 78.6905C11.2484 78.4857 10.9525 78.1511 10.7284 77.6868C10.4933 77.2121 10.3665 76.5749 10.348 75.7751L10.281 72.8799L11.1287 72.8602L11.195 75.7235C11.2138 76.5339 11.3709 77.0958 11.6662 77.409C11.9613 77.7116 12.3221 77.858 12.7487 77.8481C13.2285 77.837 13.6081 77.6414 13.8874 77.2615C14.1667 76.8816 14.2985 76.3558 14.283 75.684C14.2681 75.0441 14.1115 74.4983 13.8129 74.0464C13.5035 73.5841 13.069 73.2528 12.5095 73.0523L13.2874 72.7782C13.8469 72.9787 14.2981 73.3416 14.641 73.8672C14.9837 74.3821 15.1643 75.0394 15.1828 75.8392Z" fill="#283841"/>
<path d="M15.8159 65.4349L7.57039 63.8312L8.28051 60.1878C8.46212 59.256 8.78295 58.5577 9.24302 58.093C9.70512 57.6178 10.2817 57.4474 10.9728 57.5818C11.6429 57.7122 12.1112 58.0695 12.3776 58.6538C12.6336 59.236 12.68 59.9459 12.5168 60.7835L12.2298 60.4995C12.4216 59.5153 12.7457 58.8286 13.2019 58.4392C13.6582 58.0498 14.2318 57.9223 14.9229 58.0567C15.6349 58.1952 16.1388 58.5649 16.4346 59.1657C16.722 59.7541 16.7596 60.5927 16.5474 61.6816L15.8159 65.4349ZM15.1476 64.1803L15.6587 61.5576C15.7954 60.8561 15.7885 60.306 15.638 59.9073C15.4791 59.4961 15.1484 59.2416 14.6458 59.1438C14.1432 59.0461 13.7451 59.1371 13.4515 59.4168C13.1579 59.6966 12.9427 60.1872 12.806 60.8887L12.2734 63.6212L15.1476 64.1803ZM11.441 63.4593L11.9246 60.978C12.0491 60.3394 12.0236 59.8291 11.8481 59.4473C11.6746 59.0549 11.3575 58.8139 10.8968 58.7243C10.4361 58.6347 10.0569 58.7403 9.7592 59.041C9.46355 59.3312 9.25349 59.7956 9.12901 60.4343L8.6454 62.9156L11.441 63.4593Z" fill="#283841"/>
<path d="M20.6386 49.9347C20.3142 50.6776 19.8556 51.2748 19.2627 51.7262C18.6644 52.1636 17.9971 52.4255 17.261 52.5119C16.5151 52.5941 15.7608 52.4691 14.9981 52.1367C14.2256 51.8 13.6207 51.3328 13.1833 50.735C12.746 50.1372 12.4892 49.4726 12.4129 48.7412C12.3365 48.0098 12.4627 47.2678 12.7914 46.5151C13.1243 45.7526 13.5851 45.1505 14.1737 44.7089C14.7665 44.2575 15.4289 43.9934 16.1608 43.9168C16.8969 43.8303 17.6512 43.9554 18.4237 44.292C19.1864 44.6244 19.7913 45.0916 20.2384 45.6937C20.68 46.2817 20.9417 46.9485 21.0236 47.6939C21.0956 48.4351 20.9673 49.182 20.6386 49.9347ZM19.7146 49.532C19.9579 48.9748 20.0512 48.4279 19.9946 47.8913C19.9282 47.3504 19.7234 46.8597 19.3803 46.4193C19.0317 45.9649 18.5592 45.6077 17.9627 45.3478C17.3564 45.0836 16.7729 44.9805 16.2121 45.0387C15.6555 45.087 15.1611 45.273 14.7288 45.5966C14.2868 45.9159 13.9462 46.3493 13.7072 46.8967C13.4681 47.4441 13.3818 47.9883 13.4482 48.5292C13.5049 49.0658 13.7026 49.5592 14.0414 50.0094C14.3803 50.4596 14.8528 50.8168 15.4591 51.081C16.0556 51.3409 16.6391 51.4439 17.2097 51.39C17.7705 51.3319 18.2719 51.1432 18.714 50.8238C19.1463 50.5003 19.4798 50.0697 19.7146 49.532Z" fill="#283841"/>
<path d="M25.4041 41.3115L18.6268 36.3488L20.8228 33.3561C21.3844 32.5907 21.9725 32.0958 22.5869 31.8715C23.2076 31.6386 23.802 31.7301 24.37 32.146C24.9208 32.5493 25.1922 33.072 25.1842 33.7139C25.1676 34.3496 24.9069 35.0114 24.4021 35.6994L24.2635 35.3203C24.8567 34.5119 25.4427 34.0288 26.0216 33.871C26.6004 33.7131 27.1739 33.8422 27.7419 34.2581C28.3271 34.6866 28.6254 35.2356 28.6369 35.9051C28.6462 36.5596 28.3226 37.3341 27.6663 38.2285L25.4041 41.3115ZM25.3343 39.8921L26.915 37.7378C27.3378 37.1616 27.5661 36.6612 27.6 36.2364C27.6315 35.7968 27.4407 35.4258 27.0276 35.1233C26.6145 34.8208 26.2155 34.7335 25.8306 34.8615C25.4456 34.9894 25.0417 35.3415 24.6189 35.9177L22.9719 38.1622L25.3343 39.8921ZM22.2877 37.6612L23.7833 35.6231C24.1682 35.0985 24.3627 34.6261 24.3667 34.206C24.377 33.7772 24.1928 33.4242 23.8141 33.147C23.4355 32.8697 23.0474 32.8036 22.6498 32.9488C22.2585 33.0853 21.8704 33.4159 21.4855 33.9405L19.9899 35.9786L22.2877 37.6612Z" fill="#283841"/>
<path d="M37.8897 27.8499L36.6602 26.4596L36.4228 26.2637L34.3664 23.9385C33.893 23.4032 33.3771 23.1258 32.8188 23.1064C32.2685 23.0799 31.6974 23.3278 31.1056 23.8501C30.6977 24.2101 30.3699 24.6203 30.1222 25.0808C29.8744 25.5413 29.7215 25.9964 29.6635 26.446L28.7178 26.1496C28.7974 25.5956 28.9976 25.049 29.3183 24.5099C29.6318 23.9629 30.0366 23.4705 30.5324 23.0329C31.3481 22.313 32.1561 21.9626 32.9564 21.9819C33.7576 21.9862 34.5221 22.3998 35.2499 23.2228L38.7055 27.1299L37.8897 27.8499ZM35.7714 29.8261C35.2996 30.2426 34.8206 30.5302 34.3344 30.6889C33.8492 30.8326 33.3945 30.8498 32.9703 30.7405C32.539 30.6232 32.1644 30.3847 31.8464 30.0252C31.5567 29.6976 31.3712 29.3349 31.2899 28.9371C31.2096 28.5243 31.2748 28.0827 31.4853 27.6123C31.6968 27.1269 32.1024 26.6195 32.7022 26.0901L34.8735 24.1738L35.4353 24.809L33.288 26.7042C32.6802 27.2406 32.3518 27.7226 32.3026 28.1501C32.2615 28.5705 32.3823 28.9405 32.6649 29.2601C32.9829 29.6196 33.3773 29.7838 33.848 29.7525C34.3187 29.7212 34.806 29.4832 35.3098 29.0385C35.7896 28.615 36.1061 28.1436 36.2592 27.6244C36.4132 27.0901 36.3865 26.5446 36.179 25.988L36.8903 26.4059C37.0978 26.9625 37.1112 27.5412 36.9304 28.1418C36.7575 28.7353 36.3712 29.2968 35.7714 29.8261Z" fill="#283841"/>
<path d="M48.6558 21.0842L47.1744 18.4479L47.4734 18.5554L44.9893 19.9483C44.0496 20.4752 43.1996 20.6827 42.4394 20.5709C41.6792 20.4591 41.0796 20.0126 40.6407 19.2315C40.1705 18.3945 40.1041 17.6124 40.4418 16.885C40.7742 16.1483 41.4149 15.5139 42.3639 14.9818L45.4481 13.2524L49.5629 20.5756L48.6558 21.0842ZM43.2967 24.0891L43.7231 20.1446L44.7559 19.5655L44.3713 23.4865L43.2967 24.0891ZM47.0099 18.1549L44.8623 14.3329L45.2084 14.5241L42.8777 15.8309C42.1985 16.2118 41.7414 16.6393 41.5062 17.1136C41.2804 17.5826 41.332 18.1101 41.6612 18.696C42.2725 19.784 43.2714 19.9393 44.6576 19.162L47.058 17.8161L47.0099 18.1549Z" fill="#283841"/>
<path d="M70.939 15.8231C71.4989 15.8123 71.9206 15.2761 71.9061 14.5242C71.899 14.1563 71.7436 13.5672 71.4556 12.7406C71.1675 11.914 71.0087 11.1489 70.9954 10.461L70.9914 10.2531C71.7039 10.6874 72.191 11.0461 72.4199 11.2977C72.894 11.8167 74.1388 13.297 75.0826 13.2788C75.6425 13.268 76.0187 12.8607 76.0095 12.3807C76.0042 12.1088 75.8876 11.871 75.659 11.6354C75.2021 11.1801 74.206 10.9753 73.0332 10.7418C72.4389 10.6253 71.8104 10.3973 71.1151 10.0267C71.8115 9.62916 72.4465 9.36087 73.0519 9.22117C73.6413 9.08179 74.1667 8.94363 74.6119 8.79102C75.5338 8.46919 75.9248 7.99756 75.9143 7.45366C75.9047 6.95776 75.514 6.61322 75.002 6.62309C74.6821 6.62926 74.38 6.73111 74.0801 6.94493C73.7959 7.14245 73.2778 7.66453 72.5421 8.51087C71.7727 9.27784 71.8835 9.2117 70.9828 9.80517C70.9679 9.03732 71.0961 8.21869 71.3677 7.3653C71.6393 6.5119 71.7712 5.88524 71.7638 5.50132C71.7489 4.73346 71.3071 4.22988 70.7472 4.24068C70.1713 4.25178 69.7659 4.8037 69.7801 5.53956C69.791 6.09946 70.2141 7.29152 70.4849 8.05445C70.6203 8.43591 70.6784 8.96288 70.6908 9.60276L70.6948 9.81072C70.0475 9.43913 69.5439 9.04877 69.1842 8.65563C68.4649 7.86935 67.4515 6.76869 66.6036 6.78503C66.0437 6.79583 65.6669 7.17116 65.6762 7.65107C65.6814 7.92302 65.7983 8.17682 66.0109 8.41276C66.4361 8.88465 67.4 9.07411 68.6047 9.30692C69.2151 9.42318 69.8759 9.66649 70.5712 10.0372C69.9067 10.434 69.2718 10.7023 68.6981 10.8254C68.1083 10.9488 67.5832 11.103 67.1218 11.2399C66.1829 11.514 65.7612 12.0503 65.7714 12.5782C65.7806 13.0581 66.2043 13.45 66.7162 13.4401C67.548 13.4241 68.3149 12.5291 69.0974 11.6179C69.4887 11.1622 70.008 10.7041 70.7035 10.2586C70.7196 11.0905 70.591 11.8931 70.3192 12.7305C70.047 13.5519 69.9147 14.1626 69.9225 14.5625C69.9364 15.2824 70.3471 15.8345 70.939 15.8231Z" fill="#283841"/>
<path d="M93.2244 17.8554L96.1189 9.96983L103.21 12.5673L100.316 20.4529L99.2489 20.0622L101.906 12.8225L102.072 13.2069L96.5733 11.1927L96.9485 11.0064L94.2911 18.2461L93.2244 17.8554Z" fill="#283841"/>
<path d="M108.599 25.4597C107.92 25.0174 107.407 24.4668 107.06 23.808C106.727 23.1461 106.58 22.4453 106.617 21.7056C106.659 20.957 106.908 20.2343 107.363 19.5375C107.823 18.8318 108.385 18.3128 109.047 17.9805C109.71 17.6482 110.408 17.5049 111.143 17.5504C111.877 17.5959 112.589 17.8427 113.277 18.2909C113.974 18.7449 114.492 19.2984 114.83 19.9513C115.177 20.6101 115.328 21.3064 115.282 22.0403C115.245 22.78 114.996 23.5027 114.536 24.2084C114.081 24.9052 113.52 25.4242 112.851 25.7654C112.198 26.1035 111.496 26.2513 110.747 26.209C110.003 26.1576 109.288 25.9079 108.599 25.4597ZM109.15 24.6155C109.66 24.9473 110.184 25.1296 110.723 25.1623C111.268 25.1862 111.786 25.0654 112.278 24.8C112.784 24.5315 113.215 24.1247 113.571 23.5798C113.932 23.026 114.131 22.4679 114.166 21.9057C114.211 21.3492 114.109 20.8313 113.862 20.3519C113.62 19.8635 113.249 19.4563 112.748 19.1304C112.248 18.8044 111.725 18.6296 111.18 18.6057C110.641 18.5729 110.122 18.6863 109.621 18.9459C109.12 19.2055 108.689 19.6123 108.328 20.1661C107.972 20.711 107.774 21.2691 107.732 21.8403C107.697 22.4025 107.8 22.9278 108.041 23.4162C108.289 23.8956 108.659 24.2954 109.15 24.6155Z" fill="#283841"/>
<path d="M116.306 31.4463L122.419 25.685L123.21 26.5225L121.132 33.7134L120.802 33.3645L128.153 31.7569L128.879 32.5246L122.766 38.286L122.052 37.5299L127.221 32.6574L127.294 32.8745L120.457 34.3499L120.105 33.9777L122.002 27.1774L122.201 27.319L117.02 32.2024L116.306 31.4463Z" fill="#283841"/>
<path d="M127.715 46.5799C127.315 45.8746 127.113 45.1497 127.107 44.4051C127.117 43.6645 127.308 42.9743 127.681 42.3344C128.063 41.6893 128.617 41.162 129.341 40.7524C130.074 40.3375 130.812 40.135 131.553 40.1447C132.294 40.1544 132.98 40.3484 133.611 40.7267C134.242 41.105 134.761 41.6514 135.166 42.3659C135.576 43.0898 135.781 43.8193 135.781 44.5547C135.786 45.2993 135.599 45.9869 135.221 46.6175C134.848 47.2573 134.295 47.7847 133.561 48.1995C132.837 48.6091 132.1 48.8116 131.349 48.8072C130.614 48.8067 129.923 48.6153 129.277 48.233C128.64 47.8455 128.12 47.2945 127.715 46.5799ZM128.592 46.0837C128.892 46.6126 129.274 47.0156 129.737 47.2927C130.21 47.5645 130.726 47.6956 131.284 47.686C131.857 47.6805 132.427 47.5176 132.993 47.1973C133.569 46.8717 134.002 46.4675 134.292 45.9847C134.588 45.5111 134.736 45.0046 134.737 44.465C134.747 43.9201 134.605 43.3879 134.31 42.8682C134.015 42.3485 133.632 41.9528 133.159 41.681C132.695 41.404 132.182 41.2656 131.618 41.2658C131.054 41.2661 130.484 41.429 129.909 41.7546C129.342 42.0749 128.909 42.4791 128.61 42.9672C128.319 43.45 128.169 43.9639 128.159 44.5087C128.159 45.0483 128.303 45.5733 128.592 46.0837Z" fill="#283841"/>
<path d="M134.154 60.2477L133.793 60.0801L141.237 58.0649L141.535 59.1613L134.091 61.1765L134.305 60.8037L135.532 65.3281L135.159 65.1142L142.603 63.099L142.9 64.1954L134.792 66.3903L131.751 55.1795L139.859 52.9845L140.157 54.0809L132.713 56.0961L132.931 55.7387L134.154 60.2477ZM133.075 67.0873L135.144 66.5271L134.926 66.8845L134.478 65.2322L135.436 64.973L136.089 67.3819L133.356 68.1219L133.075 67.0873Z" fill="#283841"/>
<path d="M140.392 75.4136C140.398 76.4696 140.175 77.2731 139.725 77.8241C139.275 78.3858 138.618 78.6733 137.754 78.6866C136.858 78.7005 136.166 78.4124 135.677 77.8226C135.188 77.2434 134.94 76.3938 134.933 75.2738L134.897 71.8819L143.296 71.7524L143.313 72.8882L140.386 72.9334L140.392 75.4136ZM135.796 75.1964C135.798 75.9752 135.961 76.5594 136.287 76.9491C136.624 77.3493 137.107 77.5445 137.737 77.5348C138.366 77.5251 138.821 77.3207 139.103 76.9216C139.396 76.5224 139.541 75.9281 139.54 75.1387L139.538 72.9465L135.794 73.0042L135.796 75.1964Z" fill="#283841"/>
</svg>
