<svg width="30" height="30" viewBox="0 0 30 30" fill="none" xmlns="http://www.w3.org/2000/svg">
<path d="M9.95606 7.7525C9.72375 7.71869 9.48685 7.76545 9.28481 7.885H9.26731C8.79856 8.16 8.37606 8.50625 8.01606 8.91375C7.71606 9.26 7.55356 9.61 7.51106 9.9475C7.48606 10.1475 7.50356 10.35 7.56231 10.5412L7.58481 10.5538C7.92231 11.545 8.36231 12.4988 8.89981 13.3962C9.59288 14.6569 10.4458 15.8227 11.4373 16.865L11.4673 16.9075L11.5148 16.9425L11.5436 16.9763L11.5786 17.0062C12.6245 18.0008 13.7931 18.8577 15.0561 19.5563C16.4998 20.3425 17.3761 20.7137 17.9023 20.8687V20.8763C18.0561 20.9237 18.1961 20.945 18.3373 20.945C18.7855 20.9119 19.2097 20.7297 19.5423 20.4275C19.9486 20.0675 20.2923 19.6438 20.5598 19.1725V19.1638C20.8111 18.6888 20.7261 18.2413 20.3636 17.9375C19.6354 17.3013 18.8481 16.7362 18.0123 16.25C17.4523 15.9462 16.8836 16.13 16.6536 16.4375L16.1623 17.0575C15.9098 17.365 15.4523 17.3225 15.4523 17.3225L15.4398 17.33C12.0261 16.4588 11.1148 13.0025 11.1148 13.0025C11.1148 13.0025 11.0723 12.5325 11.3886 12.2925L12.0036 11.7975C12.2986 11.5575 12.5036 10.99 12.1873 10.43C11.7043 9.59345 11.1404 8.80634 10.5036 8.08C10.3647 7.90906 10.1699 7.79263 9.95356 7.75125L9.95606 7.7525ZM15.7248 6.25C15.5591 6.25 15.4001 6.31585 15.2829 6.43306C15.1657 6.55027 15.0998 6.70924 15.0998 6.875C15.0998 7.04076 15.1657 7.19973 15.2829 7.31694C15.4001 7.43415 15.5591 7.5 15.7248 7.5C17.3048 7.5 18.6173 8.01625 19.6561 9.00625C20.1898 9.5475 20.6061 10.1888 20.8786 10.8913C21.1523 11.595 21.2773 12.3463 21.2448 13.0988C21.2379 13.2645 21.297 13.4262 21.4093 13.5484C21.5216 13.6705 21.6778 13.743 21.8436 13.75C22.0093 13.757 22.1711 13.6978 22.2932 13.5855C22.4153 13.4732 22.4879 13.317 22.4948 13.1512C22.5336 12.2256 22.3799 11.302 22.0436 10.4387C21.7057 9.57142 21.1935 8.78265 20.5386 8.12125L20.5261 8.10875C19.2373 6.8775 17.6073 6.25 15.7248 6.25Z" fill="#283841"/>
<path d="M15.6816 8.30496C15.5159 8.30496 15.3569 8.37081 15.2397 8.48802C15.1225 8.60523 15.0566 8.7642 15.0566 8.92996C15.0566 9.09572 15.1225 9.25469 15.2397 9.3719C15.3569 9.48911 15.5159 9.55496 15.6816 9.55496H15.7029C16.8429 9.63621 17.6729 10.0162 18.2541 10.64C18.8504 11.2825 19.1591 12.0812 19.1354 13.0687C19.1316 13.2345 19.1938 13.395 19.3083 13.5149C19.4228 13.6348 19.5803 13.7043 19.746 13.7081C19.9118 13.7119 20.0723 13.6497 20.1922 13.5352C20.3121 13.4207 20.3816 13.2632 20.3854 13.0975C20.4154 11.8012 19.9979 10.6825 19.1704 9.78996V9.78746C18.3241 8.87996 17.1629 8.39996 15.7654 8.30621L15.7441 8.30371L15.6816 8.30496Z" fill="#283841"/>
<path d="M15.6575 10.3988C15.5738 10.3914 15.4896 10.4009 15.4097 10.4269C15.3298 10.4528 15.256 10.4945 15.1926 10.5496C15.1292 10.6047 15.0776 10.6719 15.0408 10.7474C15.004 10.8229 14.9828 10.905 14.9784 10.9888C14.974 11.0727 14.9866 11.1566 15.0154 11.2355C15.0441 11.3143 15.0885 11.3866 15.1458 11.448C15.2031 11.5094 15.2722 11.5585 15.3489 11.5926C15.4257 11.6267 15.5085 11.6449 15.5925 11.6463C16.115 11.6738 16.4487 11.8313 16.6587 12.0425C16.87 12.255 17.0275 12.5963 17.0562 13.13C17.0578 13.2139 17.0762 13.2966 17.1104 13.3732C17.1446 13.4498 17.1939 13.5187 17.2553 13.5759C17.3167 13.6331 17.389 13.6773 17.4678 13.7059C17.5467 13.7345 17.6305 13.747 17.7143 13.7425C17.798 13.7381 17.88 13.7168 17.9554 13.68C18.0308 13.6432 18.098 13.5916 18.153 13.5282C18.208 13.4649 18.2497 13.3911 18.2756 13.3113C18.3015 13.2315 18.3111 13.1473 18.3037 13.0638C18.2637 12.3138 18.0287 11.6513 17.5475 11.1638C17.0637 10.6763 16.405 10.4388 15.6575 10.3988Z" fill="#283841"/>
<path fill-rule="evenodd" clip-rule="evenodd" d="M8.83351 2.97995C12.8111 2.09083 16.9359 2.09083 20.9135 2.97995L21.3373 3.0737C22.5 3.33364 23.5679 3.91086 24.4223 4.74123C25.2768 5.5716 25.8842 6.6226 26.1773 7.77745C27.1869 11.7561 27.1869 15.9238 26.1773 19.9025C25.8842 21.0573 25.2768 22.1083 24.4223 22.9387C23.5679 23.769 22.5 24.3463 21.3373 24.6062L20.9123 24.6999C18.421 25.2571 15.8647 25.467 13.316 25.3237L9.99976 28.2912C9.87474 28.4031 9.72196 28.4795 9.55737 28.5122C9.39278 28.545 9.22242 28.5329 9.06407 28.4774C8.90572 28.4218 8.76518 28.3248 8.65712 28.1964C8.54907 28.068 8.47746 27.913 8.44976 27.7474L7.90101 24.4699C6.84874 24.1425 5.89802 23.5507 5.13972 22.7511C4.38142 21.9514 3.84088 20.9706 3.56976 19.9025C2.56008 15.9238 2.56008 11.7561 3.56976 7.77745C3.86279 6.6226 4.47026 5.5716 5.32468 4.74123C6.1791 3.91086 7.24701 3.33364 8.40976 3.0737L8.83351 2.97995ZM20.5048 4.8087C16.7964 3.97971 12.9507 3.97971 9.24226 4.8087L8.81726 4.9037C7.99316 5.08827 7.23634 5.49765 6.63086 6.08636C6.02537 6.67508 5.5949 7.42011 5.38726 8.2387C4.4544 11.9146 4.4544 15.7653 5.38726 19.4412C5.595 20.26 6.02565 21.0051 6.63138 21.5938C7.2371 22.1826 7.99418 22.5918 8.81851 22.7762L8.93101 22.8012C9.113 22.8419 9.27872 22.936 9.40698 23.0713C9.53523 23.2067 9.6202 23.3773 9.65101 23.5612L10.0185 25.7587L12.3585 23.6649C12.452 23.5811 12.5613 23.5169 12.68 23.4761C12.7988 23.4353 12.9245 23.4187 13.0498 23.4275C15.5486 23.6047 18.0599 23.4173 20.5048 22.8712L20.9285 22.7762C21.7528 22.5918 22.5099 22.1826 23.1156 21.5938C23.7214 21.0051 24.152 20.26 24.3598 19.4412C25.2923 15.7662 25.2923 11.915 24.3598 8.2387C24.152 7.41995 23.7214 6.67482 23.1156 6.08608C22.5099 5.49735 21.7528 5.08806 20.9285 4.9037L20.5048 4.8087Z" fill="#283841"/>
</svg>
